<svg width="245" height="245" viewBox="0 0 245 245" fill="none" xmlns="http://www.w3.org/2000/svg">
    <path fill-rule="evenodd" clip-rule="evenodd" d="M86 38H184H191C199.284 38 206.098 44.296 206.917 52.3641C206.972 52.902 207 53.4477 207 54V61V159H184L184 61H86V38ZM61 38H0V61H61V38ZM184 184H207L207 245H184V184Z" fill="black" />
    <path fill-rule="evenodd" clip-rule="evenodd" d="M61 207L245 207L245 184L61 184L61 1.60858e-05L38 1.80965e-05L38 184L38 191C38 191.552 38.028 192.098 38.0826 192.636C38.902 200.704 45.7157 207 54 207L61 207Z" fill="black" />
    <g clip-path="url(#clip0_0_1)">
        <path d="M95.2727 169V75.9091H127.818C134.303 75.9091 139.652 77.0303 143.864 79.2727C148.076 81.4848 151.212 84.4697 153.273 88.2273C155.333 91.9545 156.364 96.0909 156.364 100.636C156.364 104.636 155.651 107.939 154.227 110.546C152.833 113.152 150.985 115.212 148.682 116.727C146.409 118.242 143.939 119.364 141.273 120.091V121C144.121 121.182 146.985 122.182 149.864 124C152.742 125.818 155.152 128.424 157.091 131.818C159.03 135.212 160 139.364 160 144.273C160 148.939 158.939 153.136 156.818 156.864C154.697 160.591 151.349 163.546 146.773 165.727C142.197 167.909 136.242 169 128.909 169H95.2727ZM106.545 159H128.909C136.273 159 141.5 157.576 144.591 154.727C147.712 151.849 149.273 148.364 149.273 144.273C149.273 141.121 148.47 138.212 146.864 135.546C145.258 132.849 142.97 130.697 140 129.091C137.03 127.455 133.515 126.636 129.454 126.636H106.545V159ZM106.545 116.818H127.454C130.848 116.818 133.909 116.151 136.636 114.818C139.394 113.485 141.576 111.606 143.182 109.182C144.818 106.758 145.636 103.909 145.636 100.636C145.636 96.5455 144.212 93.0758 141.364 90.2273C138.515 87.3485 134 85.9091 127.818 85.9091H106.545V116.818Z" fill="black" />
    </g>
    <defs>
        <clipPath id="clip0_0_1">
            <rect width="65" height="94" fill="white" transform="translate(95 75)" />
        </clipPath>
    </defs>
</svg>
    